<!-- Generated by IcoMoon.io -->
<svg version="1.1" xmlns="http://www.w3.org/2000/svg" width="18" height="18" viewBox="0 0 18 18">
<title>cross</title>
<path d="M17.836 14.461c-0-0-0-0-0-0l-5.461-5.461 5.461-5.461c0-0 0-0 0-0 0.059-0.059 0.101-0.128 0.129-0.201 0.075-0.2 0.032-0.434-0.129-0.595l-2.58-2.58c-0.161-0.161-0.395-0.203-0.595-0.129-0.073 0.027-0.142 0.070-0.201 0.128 0 0-0 0-0 0l-5.461 5.461-5.461-5.461c-0-0-0-0-0-0-0.059-0.059-0.128-0.101-0.201-0.128-0.2-0.075-0.434-0.032-0.595 0.129l-2.58 2.58c-0.161 0.161-0.203 0.395-0.129 0.595 0.027 0.073 0.070 0.142 0.129 0.201 0 0 0 0 0 0l5.461 5.461-5.461 5.461c-0 0-0 0-0 0-0.059 0.059-0.101 0.128-0.129 0.201-0.075 0.2-0.032 0.434 0.129 0.595l2.58 2.58c0.161 0.161 0.395 0.203 0.595 0.129 0.073-0.027 0.142-0.070 0.201-0.129 0-0 0-0 0-0l5.461-5.461 5.461 5.461c0 0 0 0 0 0 0.059 0.059 0.128 0.101 0.201 0.129 0.2 0.075 0.434 0.032 0.595-0.129l2.58-2.58c0.161-0.161 0.203-0.395 0.129-0.595-0.027-0.073-0.070-0.142-0.129-0.201z"></path>
</svg>
